<?xml version="1.0" encoding="UTF-8"?>
<svg width="28px" height="24px" viewBox="0 0 28 24" version="1.1" xmlns="http://www.w3.org/2000/svg" xmlns:xlink="http://www.w3.org/1999/xlink">
    <title>Badge/Packshot/Entitled Check/Web/3px</title>
    <defs>
        <path d="M10.2044551,11.3085204 L15.3834931,6.26976486 C15.7604914,5.9029781 16.3634484,5.91125624 16.7302351,6.28825459 C17.0970219,6.66525294 17.0887438,7.2682099 16.7117454,7.63499665 L10.8249025,13.3623851 C10.4382099,13.7386036 9.8165189,13.7188007 9.45455345,13.318735 L7.24616469,10.8778926 C6.89327365,10.4878565 6.92338569,9.88559502 7.31342183,9.53270397 C7.70345797,9.17981292 8.30571945,9.20992497 8.65861049,9.59996111 L10.2044551,11.3085204 Z" id="path-1"></path>
    </defs>
    <g id="Badge/Packshot/Entitled-Check/Web/3px" stroke="none" stroke-width="1" fill="none" fill-rule="evenodd">
        <path d="M3,0 L14,0 C19.5228475,-1.01453063e-15 24,4.4771525 24,10 C24,15.5228475 19.5228475,20 14,20 L0,20 L0,20 L0,3 C-2.02906125e-16,1.34314575 1.34314575,3.04359188e-16 3,0 Z" id="Blue" fill="#00A8E1"></path>
        <path d="M14,20 C19.5228475,20 24,15.5228475 24,10 C24,4.4771525 19.5228475,-1.01453063e-15 14,0 L14.178,0.002 L23.5322287,0 C26.2806939,2.52949625 28,6.13928559 28,10.14644 C28,17.7975499 21.7319865,24 14,24 L0,24 L0,20 Z" id="Combined-Shape" fill="#0F171E"></path>
        <mask id="mask-2" fill="white">
            <use xlink:href="#path-1"></use>
        </mask>
        <use id="Check" fill="#0F171E" fill-rule="nonzero" xlink:href="#path-1"></use>
    </g>
</svg>